<?xml version="1.0" encoding="UTF-8"?>
<svg width="124px" height="38px" viewBox="0 0 124 38" version="1.1" xmlns="http://www.w3.org/2000/svg" xmlns:xlink="http://www.w3.org/1999/xlink">
    <!-- Generator: Sketch 47.1 (45422) - http://www.bohemiancoding.com/sketch -->
    <title>logoCombined Shape</title>
    <desc>Created with Sketch.</desc>
    <defs></defs>
    <g id="Symbols" stroke="none" stroke-width="1" fill="none" fill-rule="evenodd">
        <g id="Desktop-/-Mast" transform="translate(-116.000000, -61.000000)" fill="#DA262D">
            <g id="Logo/Dark/Frontier">
                <g transform="translate(116.000000, 61.000000)">
                    <path d="M0.0193407028,11.9707795 L17.2610581,11.9707795 L17.2610581,16.1745734 L4.87119499,16.1745734 L4.87119499,22.5164383 L16.5894208,22.5164383 L16.5894208,26.573001 L4.87119499,26.573001 L4.87119499,37.1557114 L0.0193407028,37.1557114 L0.0193407028,11.9707795 Z M30.3218086,24.176037 C29.6872761,23.9547025 29.1648477,23.8070813 28.493013,23.8070813 C25.7685694,23.8070813 23.5667516,26.4989758 23.5667516,30.3708656 L23.5667516,37.1557894 L18.9391054,37.1557894 L18.9391054,20.0092946 L23.5294494,20.0092946 L23.5294494,22.8117589 L23.6040538,22.8117589 C24.6491081,20.7838676 26.1419863,19.6038724 28.3811063,19.6038724 C29.2021499,19.6038724 29.7618805,19.7881552 30.3218086,20.0092946 L30.3218086,24.176037 Z M120.518082,24.176037 C119.883352,23.9547025 119.360924,23.8070813 118.689286,23.8070813 C115.964843,23.8070813 113.762827,26.4989758 113.762827,30.3708656 L113.762827,37.1557894 L109.135181,37.1557894 L109.135181,20.0092946 L113.72592,20.0092946 L113.72592,22.8117589 L113.800327,22.8117589 C114.845381,20.7838676 116.33826,19.6038724 118.577182,19.6038724 C119.398226,19.6038724 119.958351,19.7881552 120.518082,20.0092946 L120.518082,24.176037 Z M49.690088,28.6009703 C49.690088,33.0998118 46.0701938,37.5614067 40.0988782,37.5614067 C34.2769688,37.5614067 30.619575,33.3576127 30.619575,28.6376319 C30.619575,23.2544277 35.1724194,19.6038724 39.9123671,19.6038724 C46.3313093,19.6038724 49.690088,24.2132836 49.690088,28.6009703 Z M67.4157672,37.1557114 L62.7879236,37.1557114 L62.7879236,27.1997577 C62.7879236,25.4296673 62.2656925,24.0283377 60.2501884,24.0283377 C57.4515351,24.0283377 55.8092507,26.9051001 55.8092507,30.1866998 L55.8092507,37.1557114 L51.1816044,37.1557114 L51.1816044,20.0094116 L55.8056981,20.0094116 L55.8092507,22.7011112 C56.5556898,21.5948291 57.9366614,19.6037944 61.2952427,19.6037944 C65.4752623,19.6037944 67.4157672,22.4429202 67.4157672,25.9827109 L67.4157672,37.1557114 Z M82.9384246,37.1557114 L82.9384246,20.0094116 L87.5660709,20.0094116 L87.5660709,37.1557114 L82.9384246,37.1557114 Z M106.859923,29.1907924 L94.0218416,29.1907924 C94.2833519,30.0388835 94.5073626,30.6656402 95.1041981,31.4035516 C96.2238568,32.7307781 97.8659439,33.3575347 99.3213226,33.3575347 C101.859255,33.3575347 104.172979,32.0667748 106.188089,30.5186039 L106.188089,35.2013382 C104.658303,36.0129628 101.784453,37.5613287 98.5748835,37.5613287 C93.0515892,37.5613287 89.2072896,33.3945863 89.2072896,28.6375539 C89.2072896,23.8440548 93.0886941,19.6037944 98.2389661,19.6037944 C103.46404,19.6037944 106.859923,23.2910113 106.859923,28.4903226 L106.859923,29.1907924 Z M75.6087753,14.883911 L75.6087753,20.0463657 L80.4604323,20.0463657 L80.4604323,23.4757817 L75.7581816,23.4757817 L75.7581816,30.9609802 C75.7581816,32.8784969 76.8030385,33.3576322 77.9974989,33.3576322 C78.9304492,33.3576322 79.7514927,33.0625847 80.4604323,32.7677321 L80.4604323,36.8237098 C79.079658,37.1928605 77.6611869,37.4141949 76.2433078,37.4141949 C73.1085398,37.4141949 71.130338,35.8281924 71.130338,32.5093461 L71.130338,23.4757817 L68.2566855,23.4757817 L68.2566855,20.0463657 L71.1331011,20.0463657 L71.1331011,14.8648002 L75.6087753,14.8648002 L75.6087753,14.883911 Z M122.466481,19.9905933 L122.837135,20.499955 L123.211539,19.9905933 L123.462391,19.9905933 L123.462391,21.1657133 L123.204039,21.1657133 L123.215289,20.3930905 L122.859438,20.8864615 L122.803583,20.8864615 L122.455429,20.3809999 L122.466481,21.1657133 L122.204576,21.1657133 L122.204576,19.9905933 L122.466481,19.9905933 Z M120.995313,20.2329886 L120.995313,19.9946885 L122.039973,19.9946885 L122.039973,20.2329886 L121.646622,20.2329886 L121.646622,21.1657133 L121.38827,21.1657133 L121.38827,20.2329886 L120.995313,20.2329886 Z M79.8459917,9.63906525 C79.8459917,10.8432415 78.8585684,11.8198431 77.6398318,11.8198431 C76.4201085,11.8198431 75.4326852,10.8432415 75.4326852,9.63906525 C75.4326852,8.43547403 76.4201085,7.45867745 77.6398318,7.45867745 C78.8585684,7.45867745 79.8459917,8.43547403 79.8459917,9.63906525 Z M71.7722717,5.45182754 C71.7722717,6.46528567 70.9407677,7.28763567 69.9136738,7.28763567 C68.8875667,7.28763567 68.0572469,6.46528567 68.0572469,5.45182754 C68.0572469,4.43817439 68.8875667,3.61582439 69.9136738,3.61582439 C70.9407677,3.61582439 71.7722717,4.43817439 71.7722717,5.45182754 Z M64.0493701,2.81196118 C64.0493701,3.76243163 63.2697735,4.53368946 62.3078104,4.53368946 C61.3448606,4.53368946 60.5666455,3.76243163 60.5666455,2.81196118 C60.5666455,1.86129572 61.3448606,1.09101293 62.3078104,1.09101293 C63.2697735,1.09101293 64.0493701,1.86129572 64.0493701,2.81196118 Z M55.802481,1.49099446 C55.802481,2.31451451 55.1278832,2.98241794 54.2934187,2.98241794 C53.4597437,2.98241794 52.7841591,2.31451451 52.7841591,1.49099446 C52.7841591,0.6672794 53.4597437,0.00015600664 54.2934187,0.00015600664 C55.1278832,0.00015600664 55.802481,0.6672794 55.802481,1.49099446 Z M47.4393629,1.49099446 C47.4393629,2.1873691 46.8677902,2.75250315 46.1616138,2.75250315 C45.4564242,2.75250315 44.8858384,2.1873691 44.8858384,1.49099446 C44.8858384,0.794424812 45.4564242,0.229290759 46.1616138,0.229290759 C46.8677902,0.229290759 47.4393629,0.794424812 47.4393629,1.49099446 Z M39.3361761,2.52422643 C39.3361761,3.14103769 38.8307211,3.64162399 38.206057,3.64162399 C37.580406,3.64162399 37.0749511,3.14103769 37.0749511,2.52422643 C37.0749511,1.90683016 37.580406,1.40682888 38.206057,1.40682888 C38.8307211,1.40682888 39.3361761,1.90683016 39.3361761,2.52422643 Z M31.3807179,5.39344205 C31.3807179,5.82012021 31.0301955,6.16606494 30.5981608,6.16606494 C30.1661261,6.16606494 29.8156036,5.82012021 29.8156036,5.39344205 C29.8156036,4.96598386 30.1661261,4.62003914 30.5981608,4.62003914 C31.0301955,4.62003914 31.3807179,4.96598386 31.3807179,5.39344205 Z M24.8142444,9.73019263 C24.8142444,9.997354 24.5961547,10.2134232 24.3259603,10.2134232 C24.0559633,10.2134232 23.8368868,9.997354 23.8368868,9.73019263 C23.8368868,9.46303126 24.0559633,9.24676705 24.3259603,9.24676705 C24.5961547,9.24676705 24.8142444,9.46303126 24.8142444,9.73019263 Z M20.8807944,14.5497058 C20.8807944,14.7491992 20.7167831,14.9118362 20.5138906,14.9118362 C20.3111955,14.9118362 20.1471841,14.7491992 20.1471841,14.5497058 C20.1471841,14.3496272 20.3111955,14.1867953 20.5138906,14.1867953 C20.7167831,14.1867953 20.8807944,14.3496272 20.8807944,14.5497058 Z M87.6529317,15.4774187 C87.6529317,16.8122506 86.5387993,17.879921 85.1882221,17.879921 C83.769751,17.879921 82.7233152,16.7451677 82.7233152,15.4442673 C82.7233152,14.0097863 83.9386965,13.0088087 85.0869733,13.0088087 C85.9307139,13.0088087 87.6529317,13.7094735 87.6529317,15.4774187 Z M101.859255,26.056424 C101.560443,24.1024408 99.8439484,23.0332103 98.3510701,23.0332103 C97.9780479,23.0332103 95.4026159,23.14378 94.4323634,26.056424 L101.859255,26.056424 Z M35.5831386,28.5641137 C35.5831386,31.624769 37.8970604,33.505234 40.2482844,33.505234 C42.9352284,33.505234 44.7265244,30.9976223 44.7265244,28.6376319 C44.7265244,26.1306052 42.860624,23.65985 40.2853893,23.65985 C37.5984453,23.65985 35.5831386,25.7614544 35.5831386,28.5641137 Z" id="Combined-Shape"></path>
                </g>
            </g>
        </g>
    </g>
</svg>